<?xml version="1.0" encoding="utf-8" ?><svg xmlns="http://www.w3.org/2000/svg" xmlns:xlink="http://www.w3.org/1999/xlink" width="751" height="762" viewBox="0 0 751 762"><clipPath id="cl_4"><rect width="751" height="762"/></clipPath><g clip-path="url(#cl_4)"><path fill="white" transform="translate(-505 -138)" d="M0 0L1792 0L1792 1024L0 1024L0 0Z"/><defs><linearGradient id="gradient_0" gradientUnits="userSpaceOnUse" x1="763.81323" y1="709.00055" x2="874.86804" y2="498.4437"><stop offset="0" stop-color="#3B4E7D"/><stop offset="1" stop-color="#728ABC"/></linearGradient></defs><path fill="url(#gradient_0)" transform="translate(-505 -138)" d="M868.677 530.919C880.5 523.894 893.051 517.801 905.143 511.143C937.89 575.381 992.701 698.159 904.378 743.199C883.758 753.931 859.659 755.804 837.628 748.388C829.897 745.746 822.465 742.295 815.458 738.092C815.468 715.716 813.083 697.475 796.113 680.397C783.349 667.497 765.982 660.202 747.837 660.118C732.703 660.162 720.777 664.591 707.956 672.139C664.766 645.092 651.199 610.497 665.68 561.599C682.524 567.765 688.267 569.584 706.199 572.806C696.746 601.923 703.249 628.178 735.43 638.579C759.163 646.25 783.493 638.177 806.377 631.19C809.204 666.134 825.255 714.325 868.903 711.123C905.432 708.443 913.588 673.469 910.074 643.131C905.143 604.209 886.458 565.749 868.677 530.919Z"/><path fill="#A1598A" transform="translate(-505 -138)" d="M1018.72 255.016C1049.72 251.359 1077.77 273.638 1081.23 304.664C1084.69 335.691 1062.24 363.604 1031.2 366.868C1000.43 370.102 972.83 347.889 969.401 317.14C965.972 286.391 988.003 258.641 1018.72 255.016Z"/><defs><linearGradient id="gradient_1" gradientUnits="userSpaceOnUse" x1="723.20508" y1="777.0802" x2="769.72491" y2="678.99042"><stop offset="0" stop-color="#253866"/><stop offset="1" stop-color="#3F5483"/></linearGradient></defs><path fill="url(#gradient_1)" transform="translate(-505 -138)" d="M738.272 673.365C768.78 668.626 797.359 689.506 802.125 720.017C806.892 750.529 786.043 779.134 755.543 783.929C725.004 788.73 696.361 767.844 691.589 737.293C686.816 706.742 707.724 678.111 738.272 673.365Z"/><path fill="#A1598A" transform="translate(-505 -138)" d="M820.869 366.467C820.476 363.388 820.917 358.883 821.623 355.884C833.156 306.88 880.604 277.035 929.639 289.976C940.12 292.742 947.829 297.124 957.08 302.13C955.043 324.807 960.175 338.748 973.529 356.527C967.749 360.582 962.764 360.726 955.955 359.553C955.06 359.397 954.166 359.231 953.275 359.054C943.268 343.917 935.24 332.383 915.861 328.522C904.155 326.175 891.997 328.625 882.113 335.324C869.222 344.044 864.031 355.7 860.904 370.264L861.855 386.966L859.534 387.696C859.716 388.657 859.489 388.397 858.607 389.706C852.096 393.431 833.219 393.201 825.572 393.003C825.118 385.476 824.925 372.384 820.869 366.467Z"/><path fill="#AF7298" transform="translate(-505 -138)" d="M860.904 370.264L861.855 386.966L859.534 387.696C852.76 380.629 856.47 377.589 860.904 370.264Z"/><defs><linearGradient id="gradient_2" gradientUnits="userSpaceOnUse" x1="1024.2007" y1="348.74442" x2="1047.7031" y2="485.14026"><stop offset="0" stop-color="#A65D8D"/><stop offset="1" stop-color="#D59BB9"/></linearGradient></defs><path fill="url(#gradient_2)" transform="translate(-505 -138)" d="M973.529 356.527C1001.33 382.623 1030.41 387.49 1064.08 367.952C1107.14 395.344 1120.84 429.818 1106.63 478.638C1089.94 472.691 1083.98 470.653 1066.2 467.749C1070.67 454.338 1073.04 437.933 1066.14 425.098C1046.71 388.929 996.57 397.222 966.093 410.125C963.658 382.646 961.623 383.947 953.275 359.054C954.166 359.231 955.06 359.397 955.955 359.553C962.764 360.726 967.749 360.582 973.529 356.527Z"/><defs><linearGradient id="gradient_3" gradientUnits="userSpaceOnUse" x1="843.43353" y1="367.35883" x2="876.97748" y2="526.22705"><stop offset="0" stop-color="#AA6191"/><stop offset="1" stop-color="#E2AEC8"/></linearGradient></defs><path fill="url(#gradient_3)" transform="translate(-505 -138)" d="M820.869 366.467C824.925 372.384 825.118 385.476 825.572 393.003C833.219 393.201 852.096 393.431 858.607 389.706C859.489 388.397 859.716 388.657 859.534 387.696L861.855 386.966C868.699 431.841 881.388 472.006 905.143 511.143C893.051 517.801 880.5 523.894 868.677 530.919C843.059 487.082 816.667 416.985 820.869 366.467Z"/><path fill="#A1598A" transform="translate(-505 -138)" d="M695.065 488.363L712.206 488.103L712.362 533.82C718.274 518.831 723.763 503.678 728.824 488.38L743.726 488.357C750.299 504.463 756.621 525.422 763.086 542.491L750.256 542.265C749.347 540.788 746.568 532.524 745.82 530.375L726.513 530.1L722.07 541.956C713.965 542.572 708.22 542.368 700.097 541.995C700.106 529.24 700.007 516.485 699.802 503.731C696.455 511.717 687.621 541.513 680.034 542.454C673.656 538.954 664.64 510.563 661.302 502.039L661.651 542.425L650.396 542.43C650.114 524.422 650.135 506.412 650.46 488.405C656.074 488.146 661.928 488.351 667.565 488.451C672.994 500.716 677.091 513.134 681.559 525.788C686.171 514.172 690.477 500.484 695.065 488.363Z"/><path fill="white" transform="translate(-505 -138)" d="M735.981 501.12C738.742 504.641 741.953 513.96 740.797 518.561C740.281 520.617 738.791 520.944 737.058 521.987C725.08 519.241 732.343 508.733 735.981 501.12Z"/><path fill="#A1598A" transform="translate(-505 -138)" d="M779.166 486.81C794.092 485.927 797.554 489.314 807.265 499.832C816.677 484.38 826.082 485.683 842.27 488.401L842.669 499.704C836.075 497.85 828.426 494.7 822.233 498.884C819.207 507.811 853.085 518.71 844.229 533.143C836.79 545.268 820.597 545.459 808.597 539.936C808.054 536.979 807.405 535.363 808.606 532.671C816.034 527.098 823.692 537.774 830.55 531.918C831.454 529.151 831.418 528.783 830.934 525.902C828.13 521.19 815.198 515.571 810.067 513.066C809.317 526.338 805.59 537.227 791.676 542.001C784.882 544.32 777.441 543.809 771.027 540.583C750.39 530.135 752.732 494.912 779.166 486.81Z"/><path fill="white" transform="translate(-505 -138)" d="M779.607 497.978C780.392 497.979 781.178 497.993 781.963 498.022C802.365 498.784 801.53 520.639 787.889 532.679C787.329 532.657 786.77 532.63 786.211 532.598C765.367 531.407 764.806 509.792 779.607 497.978Z"/><path fill="#324475" transform="translate(-505 -138)" d="M1155.55 487.595C1162.06 487.16 1171.33 486.344 1174.82 493.033C1175.18 495.791 1175.39 496.127 1174.27 498.532C1168.03 500.837 1157.73 492.728 1152.32 501.385C1153.33 507.97 1166.58 511.942 1171.15 517.329C1197.45 548.287 1142.97 544.368 1127.58 543.642L1123.74 531.444C1117.43 531.605 1110.57 531.442 1104.21 531.406L1100.05 543.941C1095.83 544.103 1090.85 543.955 1086.57 543.938L1090.24 533.777C1095.83 518.786 1101.11 503.677 1106.06 488.463L1120.87 488.351C1124.19 498.466 1133.28 524.649 1138.09 533.547C1139.55 533.121 1141.36 531.461 1141.36 531.462C1146.65 532.35 1153.41 536.677 1158.89 534.916C1161.21 534.171 1162.68 533.139 1163.72 530.804C1161.82 521.942 1143.15 517.308 1139.96 506.735C1136.48 495.184 1146.29 490.643 1155.55 487.595Z"/><path fill="white" transform="translate(-505 -138)" d="M1113.38 502.133C1116.67 505.583 1119.56 515.356 1118.42 520.222C1118.01 521.997 1116.26 522.208 1114.72 522.863C1112.03 522.556 1110.67 522.652 1108.69 520.738C1106.5 515.202 1110.91 507.823 1113.38 502.133Z"/><path fill="#324475" transform="translate(-505 -138)" d="M938.56 488.479C950.884 488.152 966.196 486.833 977.023 493.693C993.245 503.972 989.112 522.22 980.14 536.136C965.622 545.953 955.756 544.681 938.816 544.081C938.332 525.846 938.577 506.777 938.56 488.479Z"/><path fill="white" transform="translate(-505 -138)" d="M951.149 498.366C971.495 498.689 981.651 509.503 970.621 528.531C964.474 534.126 958.839 533.952 951.014 534.046C950.754 522.153 950.799 510.256 951.149 498.366Z"/><path fill="#324475" transform="translate(-505 -138)" d="M1040.4 488.412C1066.49 488.158 1096.98 487.84 1087.89 525.632C1086.96 529.506 1084.68 532.81 1082.36 535.995C1068.49 545.656 1056.65 543.882 1040.4 543.574C1041.11 526.2 1040.58 505.983 1040.4 488.412Z"/><path fill="white" transform="translate(-505 -138)" d="M1052.71 498.113C1073.76 499.763 1084.46 509.334 1071.66 529.808C1046.78 546.636 1051.8 511.522 1052.71 498.113Z"/><path fill="#A1598A" transform="translate(-505 -138)" d="M572.258 502.444C591.613 501.462 591.417 500.445 605.283 511.629C606.57 509.31 606.322 505.468 606.411 502.628C611.174 502.43 628.003 501.211 630.644 504.814C627.827 509.799 616.703 510.452 613.629 514.679C617.754 518.451 628.429 518.699 629.683 523.592C624.433 529.537 621.379 522.062 614.02 530.108C619.201 540.099 625.626 531.334 631.12 538.304L630.612 540.658C627.307 543.56 612.23 542.711 606.944 542.705L606.307 530.491C595.424 543.9 588.085 542.922 571.947 542.168C572.282 528.926 571.741 516.045 572.258 502.444Z"/><path fill="white" transform="translate(-505 -138)" d="M580.529 509.147C595.133 509.659 602.427 518.246 594.629 532.102C590.28 534.502 587.673 535.792 583.154 533.462C579.22 528.12 580.45 516.315 580.529 509.147Z"/><path fill="#324475" transform="translate(-505 -138)" d="M1004.99 488.498L1019.72 488.361C1026.4 504.888 1033.84 526.67 1039.48 543.505L1026 543.66C1024.69 539.07 1024.02 533.221 1019.48 531.27L1002.36 531.27L998.115 543.712L984.75 544.183C990.426 526.8 1000.36 505.621 1004.99 488.498Z"/><path fill="white" transform="translate(-505 -138)" d="M1011.58 501.242C1014.56 505.01 1018.75 515.394 1017.06 520.474C1016.65 521.687 1015.03 521.982 1013.83 522.491C1009.99 521.993 1010.02 522.581 1007.34 520.53C1004.96 514.745 1009.16 507.336 1011.58 501.242Z"/><path fill="#A1598A" transform="translate(-505 -138)" d="M746.108 471.859C747.266 471.788 747.802 472.205 748.961 472.69L749.507 474.378C746.864 486.495 737.845 481.211 730.23 480.032L728.701 481.154C726.551 482.194 725.753 482.911 723.584 482.405C722.843 480.852 722.159 479.065 722.912 477.328C727.109 467.643 734.773 477.668 745.246 472.306L746.108 471.859Z"/></g></svg>